<svg viewBox="0 0 148 147" fill="none" xmlns="http://www.w3.org/2000/svg">
  <path stroke="currentColor" stroke-width="6" d="M40.5 73.5L3.88319 142.454C3.39449 143.374 2 143.027 2 141.985L2 5.01529C2 3.97329 3.39449 3.62599 3.88319 4.54628L40.5 73.5ZM40.5 73.5L77.1168 4.54628C77.6055 3.626 79 3.97329 79 5.01529V141.985C79 143.027 77.6055 143.374 77.1168 142.454L40.5 73.5Z" />
  <path stroke="currentColor" stroke-width="6" d="M110 73.1263L145.295 37.7696C145.684 37.3792 145.684 36.747 145.295 36.3567L111.708 2.71072C111.078 2.07991 110 2.52588 110 3.41721V73.1263ZM110 73.1263V143.583C110 144.474 111.078 144.92 111.708 144.289L145.302 110.636C145.689 110.249 145.692 109.622 145.309 109.23L110 73.1263Z" />
</svg>
