<svg viewBox="0 0 250 204" xmlns="http://www.w3.org/2000/svg">
<path d="M78.62 203.59C172.96 203.59 224.56 125.43 224.56 57.65C224.56 55.43 224.56 53.22 224.41 51.02C234.448 43.7591 243.114 34.7688 250 24.47C240.639 28.618 230.708 31.3383 220.54 32.54C231.247 26.1298 239.261 16.0477 243.09 4.17C233.022 10.1446 222.006 14.3551 210.52 16.62C202.787 8.39684 192.559 2.95168 181.419 1.12713C170.279 -0.697422 158.848 1.20036 148.895 6.5268C138.943 11.8532 131.023 20.3114 126.362 30.5924C121.701 40.8734 120.558 52.404 123.11 63.4C102.718 62.3777 82.768 57.0783 64.5564 47.8459C46.3448 38.6135 30.2784 25.6544 17.4 9.81C10.8409 21.1016 8.832 34.4686 11.7823 47.1894C14.7326 59.9102 22.4202 71.0283 33.28 78.28C25.1174 78.0381 17.1328 75.8361 10 71.86C10 72.07 10 72.29 10 72.51C10.0032 84.3522 14.1026 95.8287 21.6028 104.993C29.103 114.157 39.5423 120.445 51.15 122.79C43.5987 124.849 35.6758 125.15 27.99 123.67C31.2676 133.862 37.6486 142.774 46.2407 149.161C54.8328 155.547 65.2061 159.089 75.91 159.29C57.7474 173.564 35.3106 181.313 12.21 181.29C8.12903 181.282 4.05204 181.035 0 180.55C23.4564 195.603 50.7491 203.587 78.62 203.55" fill="#38B2AC"/>
</svg>
